<svg width="24" height="24" viewBox="0 0 24 24" fill="none" xmlns="http://www.w3.org/2000/svg">
  <path d="M12 2C6.48 2 2 6.48 2 12C2 14.07 2.67 16.02 3.87 17.63L2.15 22.27L6.98 20.5C8.49 21.35 10.2 21.8 12 21.8C17.52 21.8 22 17.32 22 12C22 6.48 17.52 2 12 2ZM16.05 15.88C15.83 16.25 15.38 16.44 14.87 16.62C14.36 16.8 13.73 16.89 12.44 16.44C10.65 15.87 9.29 14.51 8.83 12.98C8.64 12.38 8.73 11.85 8.92 11.38C9.11 10.91 9.29 10.47 9.29 10.04C9.29 9.61 9.11 9.25 8.92 9.07L8.36 8.51C8.18 8.33 7.82 8.33 7.64 8.51L7.45 8.69C7.27 8.87 7.09 9.23 7.09 9.61C7.09 10.35 6.9 11.09 6.9 11.83C6.9 13.53 8.18 15.42 9.47 16.44C10.76 17.46 12.26 17.82 13.55 17.82C14.09 17.82 14.54 17.73 14.91 17.64C15.29 17.55 15.65 17.37 15.83 17.19L16.39 16.63C16.57 16.44 16.57 16.08 16.39 15.9L16.05 15.88Z" fill="#25D366"/>
</svg>